<mxfile host="app.diagrams.net" agent="Mozilla/5.0 (Windows NT 10.0; Win64; x64) AppleWebKit/537.36 (KHTML, like Gecko) Chrome/131.0.0.0 Safari/537.36 Edg/131.0.0.0" version="25.0.3">
  <diagram id="C5RBs43oDa-KdzZeNtuy" name="Page-1">
    <mxGraphModel dx="4631" dy="1637" grid="1" gridSize="10" guides="1" tooltips="1" connect="1" arrows="1" fold="1" page="1" pageScale="1" pageWidth="827" pageHeight="1169" math="0" shadow="0">
      <root>
        <mxCell id="WIyWlLk6GJQsqaUBKTNV-0" />
        <mxCell id="WIyWlLk6GJQsqaUBKTNV-1" parent="WIyWlLk6GJQsqaUBKTNV-0" />
        <mxCell id="mvioNwK95yMqdUQ73LqQ-36" value="" style="swimlane;fontFamily=Sarabun;fontSource=https%3A%2F%2Ffonts.googleapis.com%2Fcss%3Ffamily%3DSarabun;" parent="WIyWlLk6GJQsqaUBKTNV-1" vertex="1">
          <mxGeometry x="-1510" y="60" width="1410" height="2510" as="geometry" />
        </mxCell>
        <mxCell id="JBCHaNcfTczLMrVH9G6V-0" style="edgeStyle=orthogonalEdgeStyle;rounded=0;orthogonalLoop=1;jettySize=auto;html=1;exitX=0.5;exitY=1;exitDx=0;exitDy=0;" parent="mvioNwK95yMqdUQ73LqQ-36" source="mvioNwK95yMqdUQ73LqQ-35" edge="1">
          <mxGeometry relative="1" as="geometry">
            <mxPoint x="320.2758620689656" y="130" as="targetPoint" />
          </mxGeometry>
        </mxCell>
        <mxCell id="mvioNwK95yMqdUQ73LqQ-35" value="&lt;font data-font-src=&quot;https://fonts.googleapis.com/css?family=Sarabun&quot; face=&quot;Sarabun&quot;&gt;Start&lt;/font&gt;" style="ellipse;whiteSpace=wrap;html=1;" parent="mvioNwK95yMqdUQ73LqQ-36" vertex="1">
          <mxGeometry x="255" y="40" width="130" height="30" as="geometry" />
        </mxCell>
        <mxCell id="yDPij8MBY7NgReRULdWM-1" style="edgeStyle=orthogonalEdgeStyle;rounded=0;orthogonalLoop=1;jettySize=auto;html=1;" edge="1" parent="mvioNwK95yMqdUQ73LqQ-36" source="yDPij8MBY7NgReRULdWM-0">
          <mxGeometry relative="1" as="geometry">
            <mxPoint x="320" y="310" as="targetPoint" />
          </mxGeometry>
        </mxCell>
        <mxCell id="yDPij8MBY7NgReRULdWM-0" value="Declare&lt;div&gt;start and end&lt;/div&gt;&lt;div&gt;for multiply table&lt;/div&gt;" style="rounded=0;whiteSpace=wrap;html=1;" vertex="1" parent="mvioNwK95yMqdUQ73LqQ-36">
          <mxGeometry x="260" y="130" width="120" height="60" as="geometry" />
        </mxCell>
        <mxCell id="yDPij8MBY7NgReRULdWM-6" style="edgeStyle=orthogonalEdgeStyle;rounded=0;orthogonalLoop=1;jettySize=auto;html=1;" edge="1" parent="mvioNwK95yMqdUQ73LqQ-36" source="yDPij8MBY7NgReRULdWM-2">
          <mxGeometry relative="1" as="geometry">
            <mxPoint x="320" y="470" as="targetPoint" />
          </mxGeometry>
        </mxCell>
        <mxCell id="yDPij8MBY7NgReRULdWM-2" value="Display &quot;Start&quot;" style="shape=parallelogram;perimeter=parallelogramPerimeter;whiteSpace=wrap;html=1;fixedSize=1;" vertex="1" parent="mvioNwK95yMqdUQ73LqQ-36">
          <mxGeometry x="260" y="310" width="120" height="60" as="geometry" />
        </mxCell>
        <mxCell id="yDPij8MBY7NgReRULdWM-3" style="edgeStyle=orthogonalEdgeStyle;rounded=0;orthogonalLoop=1;jettySize=auto;html=1;" edge="1" parent="mvioNwK95yMqdUQ73LqQ-36" source="yDPij8MBY7NgReRULdWM-4">
          <mxGeometry relative="1" as="geometry">
            <mxPoint x="320" y="650" as="targetPoint" />
          </mxGeometry>
        </mxCell>
        <mxCell id="yDPij8MBY7NgReRULdWM-4" value="Declare&lt;div&gt;start and end&lt;/div&gt;&lt;div&gt;for multiply table&lt;/div&gt;" style="rounded=0;whiteSpace=wrap;html=1;" vertex="1" parent="mvioNwK95yMqdUQ73LqQ-36">
          <mxGeometry x="260" y="470" width="120" height="60" as="geometry" />
        </mxCell>
        <mxCell id="yDPij8MBY7NgReRULdWM-7" style="edgeStyle=orthogonalEdgeStyle;rounded=0;orthogonalLoop=1;jettySize=auto;html=1;" edge="1" parent="mvioNwK95yMqdUQ73LqQ-36" source="yDPij8MBY7NgReRULdWM-5">
          <mxGeometry relative="1" as="geometry">
            <mxPoint x="320" y="770" as="targetPoint" />
          </mxGeometry>
        </mxCell>
        <mxCell id="yDPij8MBY7NgReRULdWM-5" value="Display &quot;Start&quot;" style="shape=parallelogram;perimeter=parallelogramPerimeter;whiteSpace=wrap;html=1;fixedSize=1;" vertex="1" parent="mvioNwK95yMqdUQ73LqQ-36">
          <mxGeometry x="260" y="650" width="120" height="60" as="geometry" />
        </mxCell>
        <mxCell id="yDPij8MBY7NgReRULdWM-10" style="edgeStyle=orthogonalEdgeStyle;rounded=0;orthogonalLoop=1;jettySize=auto;html=1;" edge="1" parent="mvioNwK95yMqdUQ73LqQ-36" source="yDPij8MBY7NgReRULdWM-8">
          <mxGeometry relative="1" as="geometry">
            <mxPoint x="320" y="910" as="targetPoint" />
          </mxGeometry>
        </mxCell>
        <mxCell id="yDPij8MBY7NgReRULdWM-8" value="&amp;nbsp;i = start" style="rounded=0;whiteSpace=wrap;html=1;" vertex="1" parent="mvioNwK95yMqdUQ73LqQ-36">
          <mxGeometry x="260" y="770" width="120" height="60" as="geometry" />
        </mxCell>
        <mxCell id="yDPij8MBY7NgReRULdWM-12" style="edgeStyle=orthogonalEdgeStyle;rounded=0;orthogonalLoop=1;jettySize=auto;html=1;" edge="1" parent="mvioNwK95yMqdUQ73LqQ-36" source="yDPij8MBY7NgReRULdWM-11">
          <mxGeometry relative="1" as="geometry">
            <mxPoint x="320" y="1060" as="targetPoint" />
          </mxGeometry>
        </mxCell>
        <mxCell id="yDPij8MBY7NgReRULdWM-49" style="edgeStyle=orthogonalEdgeStyle;rounded=0;orthogonalLoop=1;jettySize=auto;html=1;entryX=0.5;entryY=0;entryDx=0;entryDy=0;" edge="1" parent="mvioNwK95yMqdUQ73LqQ-36" source="yDPij8MBY7NgReRULdWM-11" target="yDPij8MBY7NgReRULdWM-48">
          <mxGeometry relative="1" as="geometry">
            <Array as="points">
              <mxPoint x="20" y="950" />
              <mxPoint x="20" y="2000" />
            </Array>
          </mxGeometry>
        </mxCell>
        <mxCell id="yDPij8MBY7NgReRULdWM-11" value="i &amp;lt;= end" style="rhombus;whiteSpace=wrap;html=1;" vertex="1" parent="mvioNwK95yMqdUQ73LqQ-36">
          <mxGeometry x="280" y="910" width="80" height="80" as="geometry" />
        </mxCell>
        <mxCell id="yDPij8MBY7NgReRULdWM-13" value="Yes" style="text;html=1;align=center;verticalAlign=middle;resizable=0;points=[];autosize=1;strokeColor=none;fillColor=none;" vertex="1" parent="mvioNwK95yMqdUQ73LqQ-36">
          <mxGeometry x="260" y="990" width="40" height="30" as="geometry" />
        </mxCell>
        <mxCell id="yDPij8MBY7NgReRULdWM-37" style="edgeStyle=orthogonalEdgeStyle;rounded=0;orthogonalLoop=1;jettySize=auto;html=1;entryX=0.5;entryY=0;entryDx=0;entryDy=0;" edge="1" parent="mvioNwK95yMqdUQ73LqQ-36" source="yDPij8MBY7NgReRULdWM-14" target="yDPij8MBY7NgReRULdWM-36">
          <mxGeometry relative="1" as="geometry" />
        </mxCell>
        <mxCell id="yDPij8MBY7NgReRULdWM-14" value="j = 1" style="rounded=0;whiteSpace=wrap;html=1;" vertex="1" parent="mvioNwK95yMqdUQ73LqQ-36">
          <mxGeometry x="260" y="1060" width="120" height="60" as="geometry" />
        </mxCell>
        <mxCell id="yDPij8MBY7NgReRULdWM-41" style="edgeStyle=orthogonalEdgeStyle;rounded=0;orthogonalLoop=1;jettySize=auto;html=1;entryX=0.5;entryY=0;entryDx=0;entryDy=0;" edge="1" parent="mvioNwK95yMqdUQ73LqQ-36" source="yDPij8MBY7NgReRULdWM-16" target="yDPij8MBY7NgReRULdWM-18">
          <mxGeometry relative="1" as="geometry" />
        </mxCell>
        <mxCell id="yDPij8MBY7NgReRULdWM-46" style="edgeStyle=orthogonalEdgeStyle;rounded=0;orthogonalLoop=1;jettySize=auto;html=1;" edge="1" parent="mvioNwK95yMqdUQ73LqQ-36" source="yDPij8MBY7NgReRULdWM-16" target="yDPij8MBY7NgReRULdWM-45">
          <mxGeometry relative="1" as="geometry" />
        </mxCell>
        <mxCell id="yDPij8MBY7NgReRULdWM-16" value="j &amp;lt;= 9&amp;nbsp;" style="rhombus;whiteSpace=wrap;html=1;" vertex="1" parent="mvioNwK95yMqdUQ73LqQ-36">
          <mxGeometry x="280" y="1310" width="80" height="80" as="geometry" />
        </mxCell>
        <mxCell id="yDPij8MBY7NgReRULdWM-19" style="edgeStyle=orthogonalEdgeStyle;rounded=0;orthogonalLoop=1;jettySize=auto;html=1;" edge="1" parent="mvioNwK95yMqdUQ73LqQ-36" source="yDPij8MBY7NgReRULdWM-18">
          <mxGeometry relative="1" as="geometry">
            <mxPoint x="320" y="1700" as="targetPoint" />
          </mxGeometry>
        </mxCell>
        <mxCell id="yDPij8MBY7NgReRULdWM-18" value="sum = i * j" style="rounded=0;whiteSpace=wrap;html=1;" vertex="1" parent="mvioNwK95yMqdUQ73LqQ-36">
          <mxGeometry x="260" y="1580" width="120" height="60" as="geometry" />
        </mxCell>
        <mxCell id="yDPij8MBY7NgReRULdWM-22" style="edgeStyle=orthogonalEdgeStyle;rounded=0;orthogonalLoop=1;jettySize=auto;html=1;" edge="1" parent="mvioNwK95yMqdUQ73LqQ-36" source="yDPij8MBY7NgReRULdWM-20" target="yDPij8MBY7NgReRULdWM-21">
          <mxGeometry relative="1" as="geometry" />
        </mxCell>
        <mxCell id="yDPij8MBY7NgReRULdWM-20" value="Display i + j + sum" style="shape=parallelogram;perimeter=parallelogramPerimeter;whiteSpace=wrap;html=1;fixedSize=1;" vertex="1" parent="mvioNwK95yMqdUQ73LqQ-36">
          <mxGeometry x="255" y="1700" width="120" height="60" as="geometry" />
        </mxCell>
        <mxCell id="yDPij8MBY7NgReRULdWM-40" style="edgeStyle=orthogonalEdgeStyle;rounded=0;orthogonalLoop=1;jettySize=auto;html=1;" edge="1" parent="mvioNwK95yMqdUQ73LqQ-36" source="yDPij8MBY7NgReRULdWM-21">
          <mxGeometry relative="1" as="geometry">
            <mxPoint x="320" y="1270" as="targetPoint" />
            <Array as="points">
              <mxPoint x="130" y="1270" />
            </Array>
          </mxGeometry>
        </mxCell>
        <mxCell id="yDPij8MBY7NgReRULdWM-21" value="j++" style="whiteSpace=wrap;html=1;" vertex="1" parent="mvioNwK95yMqdUQ73LqQ-36">
          <mxGeometry x="70" y="1610" width="120" height="60" as="geometry" />
        </mxCell>
        <mxCell id="yDPij8MBY7NgReRULdWM-38" style="edgeStyle=orthogonalEdgeStyle;rounded=0;orthogonalLoop=1;jettySize=auto;html=1;entryX=0.5;entryY=0;entryDx=0;entryDy=0;" edge="1" parent="mvioNwK95yMqdUQ73LqQ-36" source="yDPij8MBY7NgReRULdWM-36" target="yDPij8MBY7NgReRULdWM-16">
          <mxGeometry relative="1" as="geometry" />
        </mxCell>
        <mxCell id="yDPij8MBY7NgReRULdWM-36" value="" style="ellipse;whiteSpace=wrap;html=1;aspect=fixed;" vertex="1" parent="mvioNwK95yMqdUQ73LqQ-36">
          <mxGeometry x="305" y="1210" width="30" height="30" as="geometry" />
        </mxCell>
        <mxCell id="yDPij8MBY7NgReRULdWM-47" style="edgeStyle=orthogonalEdgeStyle;rounded=0;orthogonalLoop=1;jettySize=auto;html=1;entryX=1;entryY=0.5;entryDx=0;entryDy=0;" edge="1" parent="mvioNwK95yMqdUQ73LqQ-36" source="yDPij8MBY7NgReRULdWM-45" target="yDPij8MBY7NgReRULdWM-11">
          <mxGeometry relative="1" as="geometry">
            <Array as="points">
              <mxPoint x="530" y="950" />
            </Array>
          </mxGeometry>
        </mxCell>
        <mxCell id="yDPij8MBY7NgReRULdWM-45" value="i++" style="rounded=0;whiteSpace=wrap;html=1;" vertex="1" parent="mvioNwK95yMqdUQ73LqQ-36">
          <mxGeometry x="470" y="1220" width="120" height="60" as="geometry" />
        </mxCell>
        <mxCell id="yDPij8MBY7NgReRULdWM-48" value="&lt;font face=&quot;Sarabun&quot;&gt;End&lt;/font&gt;" style="ellipse;whiteSpace=wrap;html=1;" vertex="1" parent="mvioNwK95yMqdUQ73LqQ-36">
          <mxGeometry x="250" y="2060" width="130" height="30" as="geometry" />
        </mxCell>
        <mxCell id="yDPij8MBY7NgReRULdWM-42" value="Yes" style="text;html=1;align=center;verticalAlign=middle;resizable=0;points=[];autosize=1;strokeColor=none;fillColor=none;" vertex="1" parent="WIyWlLk6GJQsqaUBKTNV-1">
          <mxGeometry x="-1020" y="1368" width="40" height="30" as="geometry" />
        </mxCell>
        <mxCell id="yDPij8MBY7NgReRULdWM-43" value="No" style="text;html=1;align=center;verticalAlign=middle;resizable=0;points=[];autosize=1;strokeColor=none;fillColor=none;" vertex="1" parent="WIyWlLk6GJQsqaUBKTNV-1">
          <mxGeometry x="-930" y="1358" width="40" height="30" as="geometry" />
        </mxCell>
      </root>
    </mxGraphModel>
  </diagram>
</mxfile>
